<svg width="100" height="96" viewBox="0 0 100 96" fill="none" xmlns="http://www.w3.org/2000/svg">
<path d="M100 45.9428C100 68.9088 83.0603 87.9925 61.0196 91.3573C61.2055 90.3381 61.2576 89.2825 61.1325 88.2129C61.1325 88.2129 61.0008 87.0874 60.8286 85.6144C68.6539 84.2812 75.7189 80.6905 81.3187 75.5266C80.9826 75.2471 80.6478 74.8845 80.3178 74.4031C78.8305 72.233 80.7753 70.0797 80.7753 68.182C80.7753 66.3206 77.0225 66.4737 76.8851 65.2408C76.4109 60.9712 79.5052 60.9131 81.1549 59.2634C82.8045 57.6137 79.5243 53.8632 77.4055 54.1052C75.2723 54.333 69.2679 53.1201 69.8166 48.5261C70.4851 42.9309 62.688 43.4245 61.5715 40.8129C59.9439 37.0062 62.6496 32.3369 66.1787 31.2761C71.1774 29.7737 76.1018 25.6957 75.7171 21.1562C75.2813 16.0149 72.9542 11.3781 69.1214 8.62369C65.1328 7.00784 60.832 6.00866 56.3323 5.75654C52.3165 5.91536 48.7857 6.80784 48.9469 8.64641C49.3418 13.152 62.154 14.3222 60.004 18.534C58.8831 20.7296 50.4707 23.8284 52.0418 27.0961C53.0637 29.2211 55.5786 27.3998 54.6397 31.4794C54.2076 33.3565 52.5617 36.8835 50.0305 37.1111C47.4421 37.3528 45.2867 30.4956 38.2413 30.2708C34.9106 30.1642 30.2183 35.4675 34.2026 39.2299C36.6153 41.5083 41.1429 36.4915 42.4792 40.4105C43.4209 43.1721 42.3524 48.9734 46.7473 51.3979C48.3495 52.2817 50.8055 53.0521 53.2346 54.2864C49.6292 55.0227 45.1991 56.3966 39.9679 58.4116L35.5604 57.2487C37.4055 55.7127 40.4034 54.6315 39.6491 51.2753C38.5411 46.3444 29.9795 48.2041 24.0771 42.3018C22.2663 40.4913 18.404 34.4794 18.4199 27.2565C15.4777 32.8451 13.8032 39.2006 13.8032 45.943C13.8032 48.0183 13.9616 50.0575 14.266 52.0492C14.1965 52.048 14.1279 52.0359 14.0586 52.0359C12.1998 52.0359 10.3768 52.4265 8.68721 53.1649C8.31401 50.8111 8.11483 48.4003 8.11483 45.9431C8.11483 20.6106 28.7248 3.88617e-09 54.0571 3.88617e-09C79.39 -0.000326793 100 20.6103 100 45.9428ZM65.5374 59.3337L54.3168 64.4913L54.4908 62.0464L61.7598 58.765C60.723 58.6908 59.6488 58.6626 58.5763 58.6626C54.5601 58.6626 47.7746 60.6956 40.2697 63.6745L16.2 57.3256C13.9506 56.7322 11.5558 57.0977 9.58574 58.3355L8.40225 59.0789C7.24686 59.8047 7.2346 61.4845 8.37921 62.2273L22.848 71.6142C19.3916 73.3819 16.1124 75.1771 13.2215 76.8917L5.79702 72.9609C4.58427 72.3189 3.15045 72.2428 1.87676 72.7529L1.17398 73.0346C0.12594 73.4541 -0.313112 74.7005 0.240809 75.6843L4.33084 82.951L4.33264 82.9503C2.7895 84.2779 1.91009 85.3789 1.91009 86.1408C1.91009 88.4212 4.7163 88.9912 7.18983 88.9912C11.6016 88.9912 69.8642 75.6511 69.8642 63.5655C69.8639 61.1721 68.2269 59.975 65.5374 59.3337ZM40.9723 82.9299L53.7931 78.4136C54.3578 78.2145 54.9612 78.591 55.0308 79.1858L56.1549 88.7961C56.4357 91.1975 55.1441 93.5085 52.9516 94.5278L51.7491 95.0866C50.9982 95.4356 50.1073 95.2485 49.5601 94.6271L40.5817 84.4278C40.1446 83.931 40.3482 83.1498 40.9723 82.9299Z" fill="#F25C3A"/>
</svg>
