<svg width="98" height="100" viewBox="0 0 98 100" fill="none" xmlns="http://www.w3.org/2000/svg">
<path d="M38.4255 0C37.6555 0 36.9662 0.166437 36.361 0.502673C33.7434 1.02048 32.0656 2.68148 30.8266 3.90706C30.0028 4.72244 29.2916 5.42685 28.6763 5.42685H28.6746C27.8845 5.37642 27.1599 5.34616 26.4925 5.34616C21.9331 5.34616 19.5509 6.93487 17.3922 11.4186C17.3216 11.5632 17.2443 11.6556 17.172 11.7683H18.4766C24.0396 11.7683 28.5637 16.2923 28.5637 21.8554C28.5637 22.785 27.8105 23.5365 26.8825 23.5365C25.9545 23.5365 25.2013 22.785 25.2013 21.8554C25.2013 18.1467 22.1853 15.1306 18.4766 15.1306H10.5397C6.45616 18.1534 3.93943 23.5887 4.27062 29.0626C4.43201 31.7323 3.70574 36.1151 2.40451 38.1376C-0.801503 43.1273 -0.801503 50.0975 2.40451 55.0873C2.90046 55.8572 3.62673 56.7533 4.46732 57.7923C5.96693 59.6449 8.47861 62.7434 8.39287 64.1623C8.01125 70.4432 11.8443 77.6806 16.9366 80.2949C17.8529 80.7656 18.0075 81.2414 18.3539 82.6822C18.3925 82.8385 18.4346 83.0083 18.4766 83.1798V81.0766C18.4766 74.589 23.7555 69.3084 30.2449 69.3084C31.1729 69.3084 31.926 70.0599 31.926 70.9895C31.926 71.9192 31.1729 72.6707 30.2449 72.6707C25.6098 72.6707 21.839 76.4416 21.839 81.0766V88.5713C22.7367 89.1917 23.6563 89.5447 24.4347 89.8406C26.0083 90.4374 26.6589 90.6863 26.8976 92.4112C27.5533 97.1622 30.3676 100 34.426 100C40.4009 100 47.0567 93.6082 47.0567 84.439V22.2353C47.0567 23.165 46.3035 23.9165 45.3755 23.9165C39.8125 23.9165 35.2884 28.4405 35.2884 34.0036C35.2884 41.4193 29.2546 47.453 21.839 47.453C20.9109 47.453 20.1578 46.7015 20.1578 45.7718C20.1578 44.8421 20.9109 44.0907 21.839 44.0907C27.402 44.0907 31.926 39.5666 31.926 34.0036C31.926 26.5879 37.9598 20.5541 45.3755 20.5541C46.3035 20.5541 47.0567 21.3056 47.0567 22.2353V7.10467C47.0584 3.74399 41.9123 0 38.4255 0ZM33.6089 55.4521C33.6089 52.2007 34.8765 49.1426 37.1781 46.8427C37.8354 46.1854 38.8979 46.1854 39.5552 46.8427C40.2126 47.5001 40.2126 48.5626 39.5552 49.2199C37.8892 50.886 36.9713 53.1001 36.9713 55.4521C36.9713 57.804 37.8892 60.0182 39.5552 61.6842C40.2126 62.3416 40.2126 63.4041 39.5552 64.0614C37.8892 65.7274 36.9713 67.9416 36.9713 70.2935C36.9713 72.6455 37.8892 74.8596 39.5552 76.5257C40.2126 77.183 40.2126 78.2455 39.5552 78.9029C39.2274 79.2307 38.797 79.3955 38.3666 79.3955C37.9363 79.3955 37.5059 79.2307 37.1781 78.9029C34.8765 76.603 33.6089 73.5433 33.6089 70.2935C33.6089 67.5734 34.5083 64.9945 36.1475 62.8728C34.5067 60.7545 33.6089 58.1739 33.6089 55.4521ZM21.5801 59.65C21.5801 59.6517 21.5801 59.6517 21.5801 59.65C20.9261 61.427 21.839 63.4057 23.6143 64.0597C24.4851 64.3825 24.9307 65.3492 24.6079 66.22C24.3574 66.8976 23.7152 67.3178 23.0309 67.3178C22.8376 67.3178 22.6409 67.2842 22.4475 67.2136C18.9339 65.9141 17.13 62.0003 18.4245 58.4866C18.4245 58.4849 18.4245 58.4832 18.4245 58.4832C19.0801 56.7079 18.1673 54.7292 16.3903 54.0735C15.5194 53.7524 15.0739 52.784 15.3967 51.9132C15.7178 51.0423 16.6895 50.6002 17.557 50.9179C21.074 52.2208 22.8779 56.1363 21.5801 59.65ZM24.6432 33.8876C23.6311 36.6296 21.0253 38.3309 18.2597 38.3309C17.4797 38.3309 16.6878 38.1947 15.9145 37.9106C14.1341 37.2499 12.1604 38.1662 11.5031 39.9432C11.2526 40.6207 10.6104 41.041 9.92611 41.041C9.73278 41.041 9.53608 41.0074 9.34442 40.9368C8.47357 40.6157 8.02806 39.6473 8.34916 38.7764C9.64535 35.2628 13.5642 33.4639 17.0779 34.7534C18.8515 35.4107 20.8319 34.4995 21.4893 32.7208C21.8104 31.85 22.7804 31.4061 23.6496 31.7256C24.5204 32.0484 24.966 33.0167 24.6432 33.8876Z" fill="#F25C3A"/>
<path d="M95.4236 37.7576C94.1241 35.7369 93.3961 31.3507 93.5592 28.6826C93.8904 23.207 91.3737 17.7734 87.2901 14.7507H79.3516C76.5709 14.7507 74.308 17.0136 74.308 19.7942C74.308 20.7239 73.5548 21.4754 72.6268 21.4754C71.6988 21.4754 70.9457 20.7239 70.9457 19.7942C70.9457 15.1592 74.7165 11.3883 79.3516 11.3883H80.6562C80.5839 11.2757 80.5065 11.1832 80.4376 11.0403C78.2806 6.55661 75.8984 4.96789 71.3391 4.96789C70.6716 4.96789 69.947 4.99815 69.1199 5.05027C68.6475 5.05027 67.9128 4.26179 67.2 3.5019C65.9542 2.1704 64.2899 0.388353 61.6521 0.0857402L60.8031 0C55.3661 0 50.7715 3.07992 50.7715 6.72472V84.0591C50.7715 93.2282 57.4273 99.6184 63.4022 99.6201C63.4022 99.6201 63.4022 99.6201 63.4039 99.6201C67.4606 99.6201 70.2732 96.7822 70.9305 92.0312C71.1693 90.3063 71.8199 90.0575 73.3935 89.4607C74.1718 89.1648 75.0914 88.8117 75.9892 88.1914V80.6967C75.9892 76.0617 72.2183 72.2908 67.5833 72.2908C66.6553 72.2908 65.9021 71.5393 65.9021 70.6096C65.9021 69.6799 66.6553 68.9284 67.5833 68.9284C74.0727 68.9284 79.3516 74.209 79.3516 80.6967V82.8015C79.3953 82.63 79.4373 82.4603 79.476 82.3022C79.824 80.8631 79.977 80.384 80.8932 79.9149C85.9838 77.3007 89.8169 70.0666 89.437 63.7823C89.4218 63.5201 89.5177 63.1855 89.6572 62.8257L84.6389 57.0038C82.7946 53.9441 79.5617 52.1166 75.9892 52.1166C68.5735 52.1166 62.5398 46.0829 62.5398 38.6672C62.5398 37.7375 63.2929 36.986 64.2209 36.986C65.1489 36.986 65.9021 37.7375 65.9021 38.6672C65.9021 44.2302 70.4262 48.7542 75.9892 48.7542C80.7015 48.7542 84.9717 51.1398 87.4414 55.1444L91.4746 59.8181C92.1201 58.9439 92.8094 58.0932 93.3608 57.4106C94.2014 56.3734 94.9277 55.4773 95.4236 54.7073C98.6297 49.7176 98.6297 42.7474 95.4236 37.7576ZM62.918 52.0813C67.353 56.5179 67.353 63.7369 62.918 68.1719C61.4033 69.6866 60.5677 71.7007 60.5677 73.8391C60.5677 75.9776 61.4033 77.9917 62.918 79.5064C63.5754 80.1637 63.5754 81.2263 62.918 81.8836C62.5902 82.2131 62.1598 82.3779 61.7294 82.3779C61.299 82.3779 60.8687 82.2131 60.5408 81.8853C58.3906 79.7351 57.2054 76.877 57.2054 73.8408C57.2054 70.8046 58.3906 67.9466 60.5408 65.7964C63.6645 62.6711 63.6645 57.5855 60.5408 54.4602C59.8835 53.8028 59.8835 52.7403 60.5408 52.083C61.1982 51.4256 62.2624 51.4256 62.918 52.0813ZM82.9846 39.4069C82.3222 39.5212 81.6632 39.58 81.0126 39.58C75.5924 39.58 70.7792 35.6847 69.8092 30.1671C69.4376 28.0572 68.2692 26.218 66.5174 24.9891C64.764 23.7618 62.6389 23.2844 60.5274 23.6609C59.6111 23.8122 58.7403 23.2087 58.5806 22.2941C58.4192 21.3796 59.0311 20.507 59.9457 20.3473C62.9432 19.8245 65.961 20.4936 68.4474 22.237C70.9339 23.9804 72.5932 26.5912 73.1194 29.5854C73.8827 33.938 78.0503 36.8633 82.4012 36.0933C83.3208 35.9336 84.1883 36.5455 84.348 37.4601C84.5111 38.3746 83.8992 39.2472 82.9846 39.4069Z" fill="#F25C3A"/>
</svg>
