<svg width="100" height="100" viewBox="0 0 100 100" fill="none" xmlns="http://www.w3.org/2000/svg">
<path d="M86.5205 32.3414L67.6677 13.4902L62.9548 18.203L81.8077 37.0559L86.5205 32.3414Z" fill="#F25C3A"/>
<path d="M97.8088 21.0536C99.2003 19.6637 99.967 17.8123 99.967 15.8475C99.967 13.8794 99.2005 12.0296 97.8088 10.6397L89.3715 2.20063C87.9816 0.809191 86.1318 0.0424805 84.1637 0.0424805C82.1973 0.0424805 80.3475 0.808995 78.9577 2.20063L70.0237 11.133L88.8767 29.986L97.8088 21.0536Z" fill="#F25C3A"/>
<path d="M3.57248 78.0111L0.037918 98.0423C-0.0569931 98.5789 0.116229 99.1271 0.499584 99.5105C0.81615 99.827 1.23954 99.9987 1.67777 99.9987C1.77444 99.9987 1.87111 99.9903 1.96778 99.9737L21.2822 96.5641L3.59416 77.9463C3.58908 77.9678 3.5758 77.9879 3.57248 78.0111Z" fill="#F25C3A"/>
<path d="M13.8066 83.8595C13.8166 83.8478 13.8199 83.833 13.8316 83.8228L68.8254 28.829C68.832 28.8206 68.8438 28.8191 68.8504 28.8124L60.598 20.5601L5.76419 75.3939L13.8066 83.8595Z" fill="#F25C3A"/>
<path d="M71.1985 31.1599C71.1919 31.1683 71.1885 31.1783 71.1819 31.1849L16.1881 86.1787C16.1565 86.2121 16.1131 86.222 16.0782 86.2519L24.1339 94.731L79.4509 39.4123L71.1985 31.1599Z" fill="#F25C3A"/>
<path d="M3.81871 22.6732L12.0695 14.4241C12.7195 13.7742 13.7744 13.7742 14.4259 14.4241C15.0758 15.0758 15.0758 16.1306 14.4259 16.7805L6.17684 25.0296L8.53321 27.3877L14.4259 21.495C15.0758 20.8451 16.1308 20.8451 16.7823 21.495C17.4322 22.1465 17.4322 23.2015 16.7823 23.8514L10.8896 29.7441L13.2477 32.1005L21.4968 23.8514C22.1467 23.2015 23.2017 23.2015 23.8532 23.8514C24.5048 24.5031 24.5048 25.5578 23.8532 26.2078L15.6041 34.4568L17.9605 36.8132L23.8532 30.9223C24.5048 30.2706 25.558 30.2706 26.2095 30.9223C26.8612 31.5722 26.8612 32.6272 26.2095 33.2787L20.3168 39.1713L22.675 41.5277L30.9223 33.2787C31.574 32.627 32.6287 32.627 33.2787 33.2787C33.9303 33.9286 33.9303 34.9835 33.2787 35.635L25.0313 43.8841L27.7361 46.5871C28.0611 46.9138 28.4878 47.0753 28.9143 47.0753C29.3393 47.0753 29.766 46.9136 30.0925 46.5871L46.5889 30.0907C47.2405 29.4392 47.2405 28.3858 46.5889 27.7344L20.3186 1.46233C18.3671 -0.487445 15.1959 -0.487445 13.2477 1.46233L1.46233 13.246C-0.487445 15.1957 -0.487445 18.3671 1.46233 20.3168L3.81871 22.6732Z" fill="#F25C3A"/>
<path d="M82.756 79.4465C81.9077 79.4465 81.0595 79.7682 80.4147 80.413C79.1232 81.7029 79.1232 83.8042 80.4147 85.0959C81.7062 86.384 83.8077 86.384 85.0958 85.0959C86.3873 83.8044 86.3873 81.7047 85.0958 80.413C84.4508 79.7682 83.6042 79.4465 82.756 79.4465Z" fill="#F25C3A"/>
<path d="M98.8513 79.9944L71.4426 52.5891C70.7909 51.9374 69.7377 51.9374 69.0863 52.5891L52.5899 69.0855C51.9384 69.7372 51.9384 70.7904 52.5899 71.4419L55.6696 74.5231L61.5605 68.6304C62.2122 67.979 63.2654 67.979 63.9169 68.6304C64.5686 69.2821 64.5686 70.3353 63.9169 70.9868L58.026 76.8795L60.3824 79.2359L68.6314 70.9868C69.2829 70.3353 70.3363 70.3353 70.9878 70.9868C71.6393 71.6385 71.6393 72.6933 70.9878 73.3432L62.7387 81.5923L79.9952 98.8503C80.7601 99.6152 81.7667 99.9968 82.7716 99.9968C83.7766 99.9968 84.7814 99.6152 85.5463 98.8503L98.8515 85.5451C100.383 84.0156 100.383 81.5241 98.8513 79.9944ZM87.4525 87.452C86.1593 88.7467 84.4562 89.3933 82.7564 89.3933C81.0548 89.3933 79.3535 88.7467 78.0569 87.452C75.4689 84.8622 75.4689 80.6476 78.0569 78.0563C80.6482 75.4699 84.8646 75.4666 87.4525 78.0563C90.0423 80.6476 90.0423 84.8622 87.4525 87.452Z" fill="#F25C3A"/>
</svg>
