<svg width="100" height="77" viewBox="0 0 100 77" fill="none" xmlns="http://www.w3.org/2000/svg">
<path d="M73.922 59.0448C73.922 59.0448 73.8605 59.1095 73.7487 59.218C67.3288 56.6484 60.1641 58.5347 54.5603 53.5073C48.8965 48.428 44.6203 40.4586 39.9329 34.4289C34.7759 27.7904 29.4587 21.2782 24.054 14.8421C20.2085 10.2664 16.682 4.97017 11.7485 1.50197C11.0506 0.132169 10.4192 -0.436151 9.2987 0.371802C8.78058 0.488381 8.38065 0.902882 8.21388 1.40806C7.57755 2.12857 6.81979 3.14216 5.88069 4.51196C-0.505217 13.8463 -1.48804 21.9518 1.95103 31.2878C5.39009 40.6221 4.65338 73.5377 4.65338 73.5377C4.65338 73.5377 6.12842 75.5017 7.60184 74.5189C9.07688 73.5377 5.63782 42.34 8.34017 38.6549C8.34017 38.6549 19.8847 32.2673 29.7113 54.1306C39.5378 75.9923 44.2042 76.4829 51.0823 76.4829C57.9621 76.4829 78.1042 76.9752 92.8417 74.2712C107.578 71.5705 98.7338 66.1674 73.922 59.0448ZM51.5713 62.7283C42.7276 52.4111 21.3565 16.7932 15.9534 9.42444C15.8546 9.29167 15.7639 9.15728 15.6717 9.02451C18.5699 12.2758 21.1508 15.9496 23.7706 19.0681C30.2893 26.8286 36.5716 34.7883 42.7259 42.8387C46.3739 47.6104 49.5182 52.9373 54.0162 56.9706C58.9627 61.4087 65.4328 59.6859 71.2326 61.4281C66.8382 64.9077 57.9799 70.2071 51.5713 62.7283Z" fill="#F25C3A"/>
</svg>
