<svg width="100" height="100" viewBox="0 0 100 100" fill="none" xmlns="http://www.w3.org/2000/svg">
<path d="M82.6393 81.3133C82.4135 95.1666 75.031 100.179 67.1952 99.7147C59.3592 99.2522 53.909 95.6189 48.3437 95.6189L48.1157 95.7462C42.5503 95.7462 37.1004 99.507 29.2643 99.9694C21.4281 100.432 14.0461 95.6722 13.8203 81.8188C14.2746 69.0998 23.9644 68.1645 32.2178 53.1394C39.4851 39.9087 48.1161 40.9794 48.1161 40.9794H48.3437C48.3437 40.9794 57.0492 39.9661 64.2422 53.1394C72.4561 68.185 82.185 68.5938 82.6393 81.3133ZM34.1222 35.2716C41.0629 34.7453 46.0915 26.4289 45.3536 16.696C44.6156 6.96339 38.3905 -0.500095 31.4498 0.0262097C24.509 0.552514 19.4804 8.86909 20.2184 18.6017C20.9564 28.3344 27.1812 35.7979 34.1222 35.2716ZM60.4288 35.4406C67.2116 37.2895 74.8121 31.0786 77.4045 21.568C79.9967 12.0574 76.5998 2.84863 69.8173 0.999718C63.0345 -0.849196 55.434 5.36172 52.8418 14.8723C50.2494 24.3827 53.6461 33.5917 60.4288 35.4406ZM91.8529 27.8258C85.9464 26.2155 79.3276 31.6239 77.0702 39.906C74.8127 48.1881 77.7708 56.2071 83.6773 57.8172C89.584 59.4272 96.2026 54.0188 98.4602 45.7367C100.718 37.455 97.7598 29.4358 91.8529 27.8258ZM22.1477 39.9054C19.8901 31.6237 13.2717 26.215 7.36501 27.8251C1.45832 29.4352 -1.49999 37.4543 0.757685 45.7362C3.01536 54.0179 9.63395 59.4266 15.5406 57.8165C21.4471 56.2066 24.4052 48.1875 22.1477 39.9054Z" fill="#F25C3A"/>
</svg>
