<svg width="100" height="94" viewBox="0 0 100 94" fill="none" xmlns="http://www.w3.org/2000/svg">
<path d="M98.2492 0.785884C97.2688 0.0481205 95.9993 -0.186865 94.8205 0.15188C90.2955 1.45117 84.5285 1.08419 77.2271 0.620326C72.6556 0.329646 67.4745 5.52027e-05 61.5235 5.52027e-05C56.8604 5.52027e-05 52.6704 2.05618 49.8048 5.30631C46.9391 2.05618 42.7498 5.52027e-05 38.086 5.52027e-05C32.1358 5.52027e-05 26.9539 0.329646 22.3824 0.620326C15.081 1.08496 9.31397 1.45193 4.78897 0.15188C3.61023 -0.186865 2.34069 0.0481205 1.36108 0.785884C0.380699 1.52441 -0.195321 2.6795 -0.195321 3.90631V68.7105C-0.206002 72.8914 1.41448 76.8244 4.36706 79.7846C7.31964 82.7448 11.2488 84.3752 15.4297 84.3752H43.7501C45.9077 84.3752 47.6563 82.6265 47.6563 80.4689C47.6563 78.3113 45.9077 76.5627 43.7501 76.5627H15.4297C13.3392 76.5627 11.3747 75.7478 9.89838 74.2677C8.42209 72.7876 7.61185 70.8208 7.61719 68.7204V66.6483C9.91746 67.9819 12.5847 68.7502 15.4297 68.7502H44.5313C45.3995 68.7502 45.9939 69.2896 46.2609 69.7939C46.962 71.1176 48.3155 71.8729 49.7163 71.8729C50.3327 71.8729 50.9583 71.7271 51.5404 71.4182C52.7169 70.7956 53.4425 69.6573 53.5897 68.4297C53.666 68.1253 53.711 67.8087 53.711 67.4806V15.6251C53.711 11.3175 57.2152 7.81257 61.5235 7.81257C67.2257 7.81257 72.2756 8.13376 76.7312 8.41682C82.5578 8.7876 87.4994 9.10194 91.9923 8.61442V36.7189C91.9923 38.8765 93.741 40.6251 95.8986 40.6251C98.0562 40.6251 99.8048 38.8765 99.8048 36.7189V3.90631C99.8048 2.6795 99.2288 1.52441 98.2492 0.785884ZM15.4297 60.9376C11.1221 60.9376 7.61719 57.4327 7.61719 53.1251V8.61442C12.1101 9.10194 17.0509 8.7876 22.8775 8.41682C27.3339 8.13376 32.3838 7.81257 38.086 7.81257C42.3935 7.81257 45.8985 11.3175 45.8985 15.6251V61.0338C45.4499 60.9704 44.9936 60.9376 44.5313 60.9376H15.4297ZM39.2579 22.0704C39.2579 24.228 37.5092 25.9767 35.3516 25.9767H18.3594C16.2018 25.9767 14.4531 24.228 14.4531 22.0704C14.4531 19.9128 16.2018 18.1641 18.3594 18.1641H35.3516C37.5092 18.1641 39.2579 19.9128 39.2579 22.0704ZM33.3985 37.6954C33.3985 39.853 31.6498 41.6017 29.4922 41.6017H18.3594C16.2018 41.6017 14.4531 39.853 14.4531 37.6954C14.4531 35.5378 16.2018 33.7892 18.3594 33.7892H29.4922C31.6498 33.7892 33.3985 35.5378 33.3985 37.6954ZM79.8028 49.7186L58.3573 71.1168C57.9018 71.5715 57.5654 72.1315 57.3785 72.7472L52.7077 88.1227C52.2942 89.4861 52.6551 90.967 53.6492 91.9863C54.3946 92.75 55.407 93.165 56.4462 93.165C56.7933 93.165 57.1442 93.1185 57.4883 93.0223L73.2553 88.6553C73.9038 88.4752 74.495 88.1311 74.9719 87.6551L96.3731 66.295C100.942 61.7258 100.942 54.2909 96.3731 49.7217C91.8039 45.1524 84.369 45.1524 79.8028 49.7186ZM70.1791 81.3997L62.2476 83.597L64.5684 75.9554L79.0391 61.5167L84.5643 67.0419L70.1791 81.3997ZM90.851 60.7675L90.0941 61.5228L84.5697 55.9984L85.3242 55.2461C86.847 53.7225 89.3251 53.7225 90.8479 55.2461C92.3715 56.7689 92.3715 59.247 90.851 60.7675Z" fill="#F25C3A"/>
</svg>
