<svg width="99" height="81" viewBox="0 0 99 81" fill="none" xmlns="http://www.w3.org/2000/svg">
<path d="M49.011 0C39.028 0 30.47 6.61 26.853 16.012H71.168C67.553 6.611 58.994 0 49.011 0Z" fill="#F25C3A"/>
<path d="M93.357 40.249H79.496C80.269 37.121 80.733 33.826 80.844 30.419C85.784 27.452 91.461 22.251 92.872 13.624C93.288 11.08 91.562 8.68197 89.019 8.26697C86.474 7.85297 84.08 9.57697 83.663 12.118C82.904 16.758 79.94 19.842 77.03 21.814H21.009C18.094 19.84 15.117 16.756 14.359 12.118C13.943 9.57597 11.551 7.85297 9.002 8.26697C6.459 8.68297 4.734 11.08 5.15 13.624C6.561 22.25 12.237 27.452 17.178 30.419C17.289 33.826 17.752 37.121 18.526 40.249H4.665C2.089 40.249 0 42.338 0 44.915C0 47.492 2.089 49.581 4.665 49.581H21.987C23.298 52.158 24.842 54.536 26.589 56.664C20.489 61.235 14.776 69.212 12.005 73.409C10.585 75.557 11.176 78.451 13.325 79.872C14.117 80.395 15.011 80.645 15.893 80.645C17.407 80.645 18.892 79.91 19.79 78.553C24.414 71.563 30.376 64.957 33.536 63.081C37.332 65.682 41.609 67.342 46.158 67.84V32.608H51.866V67.84C56.409 67.342 60.679 65.687 64.474 63.092C67.669 64.982 73.62 71.575 78.234 78.553C79.132 79.909 80.617 80.645 82.13 80.645C83.013 80.645 83.906 80.395 84.698 79.872C86.846 78.452 87.438 75.56 86.018 73.409C83.244 69.209 77.545 61.225 71.439 56.658C73.184 54.531 74.725 52.155 76.035 49.581H93.357C95.932 49.581 98.022 47.492 98.022 44.915C98.022 42.338 95.934 40.249 93.357 40.249Z" fill="#F25C3A"/>
</svg>
