<svg width="98" height="100" viewBox="0 0 98 100" fill="none" xmlns="http://www.w3.org/2000/svg">
<path d="M12.8862 99.6535C13.4542 100.07 14.1926 100.108 14.7985 99.786L33.5995 89.9027L52.4005 99.786C52.6656 99.9185 52.9496 99.9945 53.2525 99.9945C53.6312 99.9945 53.9909 99.8807 54.313 99.6535C54.8619 99.2559 55.1459 98.5553 55.0325 97.8739L51.4351 76.9332L66.6577 62.1082C67.15 61.6349 67.3204 60.9154 67.1119 60.2527C66.9036 59.5901 66.3356 59.1167 65.654 59.0221L44.6378 55.9738L35.2278 36.9264C34.6219 35.6957 32.596 35.6957 31.9902 36.9264L22.5613 55.9738L1.54501 59.0221C0.863406 59.1167 0.295399 59.609 0.0871304 60.2527C-0.121139 60.9154 0.0492634 61.6349 0.541536 62.1082L15.7641 76.9332L12.1667 97.8739C12.0342 98.5744 12.3182 99.2559 12.8862 99.6535Z" fill="#F25C3A"/>
<path d="M97.3109 75.5126C97.1026 74.85 96.5346 74.3766 95.853 74.282L87.2952 73.0323L83.4706 65.2696C83.1675 64.6448 82.5429 64.2661 81.8422 64.2661C81.1418 64.2661 80.5168 64.6637 80.2139 65.2696L76.3893 73.0323L67.8313 74.282C67.1497 74.3766 66.5817 74.8691 66.3737 75.5126C66.1652 76.1753 66.3358 76.895 66.8279 77.3683L73.0191 83.4079L71.5613 91.928C71.4477 92.6098 71.7317 93.2912 72.2807 93.7078C72.8298 94.1054 73.5871 94.162 74.1932 93.8403L81.8422 89.8073L89.4913 93.8403C89.7564 93.9727 90.0404 94.0486 90.3433 94.0486C90.722 94.0486 91.0817 93.935 91.4036 93.7078C91.9527 93.31 92.2367 92.6096 92.1231 91.928L90.6654 83.4079L96.8565 77.3683C97.3487 76.895 97.5191 76.1753 97.3109 75.5126Z" fill="#F25C3A"/>
<path d="M60.5798 28.2926C59.9739 27.062 57.9482 27.062 57.3421 28.2926L54.5776 33.897L48.4053 34.7868C47.7237 34.8815 47.1557 35.3738 46.9474 36.0175C46.7392 36.6802 46.9096 37.3997 47.4018 37.873L51.8701 42.2277L50.8099 48.3811C50.6961 49.0627 50.9801 49.7443 51.5293 50.1611C51.8512 50.3881 52.211 50.5019 52.5896 50.5019C52.8736 50.5019 53.1768 50.4261 53.4227 50.2747L58.9513 47.3589L64.4799 50.2368C64.7448 50.3693 65.0288 50.3883 65.3128 50.3883C65.3319 50.3883 65.3507 50.3883 65.3507 50.3883C66.3541 50.3883 67.1683 49.6309 67.1683 48.6275C67.1683 48.4003 67.1306 48.2299 67.0547 48.0216L66.0512 42.2279L70.5195 37.8732C71.012 37.3999 71.1822 36.6804 70.9739 36.0177C70.7655 35.355 70.1975 34.8817 69.516 34.787L63.3437 33.8972L60.5798 28.2926Z" fill="#F25C3A"/>
<path d="M19.1532 5.32635C18.3201 3.62234 15.5369 3.62234 14.6849 5.32635L10.8982 13.0134L2.41597 14.2441C1.46929 14.3766 0.693013 15.0393 0.40901 15.9291C0.125007 16.8379 0.352209 17.8225 1.03382 18.4852L7.16829 24.4682L5.72934 32.9125C5.57787 33.8403 5.95654 34.787 6.71388 35.336C7.14935 35.6579 7.66056 35.8094 8.17176 35.8094C8.56937 35.8094 8.96697 35.6958 9.32671 35.5064L16.9191 31.4925L24.5114 35.4496C24.8712 35.639 25.2688 35.6579 25.6664 35.6579C25.6853 35.6579 25.7042 35.6579 25.7232 35.6579C27.1053 35.6579 28.2035 34.6166 28.2035 33.2344C28.2035 32.9125 28.1467 32.6853 28.0331 32.4013L26.6698 24.4303L32.8043 18.4473C33.4859 17.7846 33.7321 16.8001 33.4291 15.8913C33.1262 14.9825 32.3499 14.3387 31.4222 14.2062L22.9399 12.9755L19.1532 5.32635Z" fill="#F25C3A"/>
<path d="M92.4639 47.8886C92.3501 47.5668 92.0661 47.3206 91.7255 47.2638L88.8665 46.8473L87.598 44.2723C87.2951 43.6475 86.2726 43.6475 85.9697 44.2723L84.7012 46.8473L81.842 47.2638C81.5012 47.3206 81.2172 47.5478 81.1038 47.8886C80.99 48.2105 81.0847 48.5702 81.331 48.8164L83.3945 50.8235L82.9023 53.6635C82.8455 54.0043 82.9778 54.3451 83.2618 54.5534C83.5458 54.7617 83.9056 54.7804 84.2085 54.629L86.7645 53.2847L89.3206 54.629C89.4531 54.7047 89.6046 54.7428 89.7371 54.7428C89.9264 54.7428 90.1158 54.6858 90.2672 54.5724C90.5512 54.3641 90.6838 54.0233 90.627 53.6825L90.1347 50.8424L92.1983 48.8355C92.4828 48.5892 92.5775 48.2294 92.4639 47.8886Z" fill="#F25C3A"/>
<path d="M86.2914 22.6696C86.1211 22.3666 85.7803 22.2152 85.4393 22.2341L82.5616 22.4802L80.7438 20.2461C80.3083 19.716 79.3238 19.9432 79.1723 20.6058L78.5097 23.408L75.8211 24.4493C75.4992 24.5819 75.2722 24.8659 75.2531 25.2067C75.2152 25.5475 75.3856 25.8883 75.6886 26.0587L78.1499 27.5544L78.3203 30.4323C78.3393 30.7731 78.5475 31.0761 78.8694 31.2086C79.1911 31.3412 79.551 31.2844 79.8161 31.0572L81.9934 29.1827L84.7765 29.9211C84.9281 29.959 85.0605 29.959 85.2121 29.9211C85.4015 29.8833 85.5717 29.7886 85.6855 29.6371C85.9125 29.3721 85.9695 29.0123 85.8369 28.6905L84.7199 26.0398L86.2724 23.6163C86.462 23.3323 86.4807 22.9725 86.2914 22.6696Z" fill="#F25C3A"/>
<path d="M60.9774 6.15929C60.7123 5.70488 60.2009 5.45874 59.6897 5.49661L55.335 5.85635L52.5707 2.46724C51.9081 1.6531 50.4123 2.01284 50.1662 3.01632L49.1627 7.27636L45.092 8.86678C44.5997 9.05612 44.2589 9.51052 44.221 10.0217C44.1832 10.5519 44.4293 11.0441 44.8837 11.3092L48.6136 13.5812L48.8598 17.9549C48.8976 18.485 49.2195 18.9394 49.6928 19.1477C50.1662 19.356 50.7342 19.2613 51.132 18.9205L54.4453 16.0615L58.6675 17.1786C58.8947 17.2354 59.103 17.2354 59.3302 17.1975C59.6142 17.1407 59.8603 16.9893 60.0497 16.7621C60.3905 16.3645 60.4851 15.8154 60.2769 15.3231L58.5728 11.2903L60.9395 7.61717C61.2425 7.1817 61.2425 6.61369 60.9774 6.15929Z" fill="#F25C3A"/>
<path d="M79.7217 2.14536C79.5891 1.91816 79.3239 1.78563 79.059 1.80456L76.8059 1.99389L75.367 0.233074C75.026 -0.183464 74.2499 -0.013062 74.1172 0.517077L73.606 2.71337L71.5043 3.54645C71.2582 3.64111 71.0689 3.88725 71.0499 4.15232C71.031 4.41739 71.1637 4.68246 71.3909 4.81499L73.322 5.98887L73.4545 8.2609C73.4736 8.52597 73.6438 8.7721 73.89 8.86677C74.1363 8.98037 74.4203 8.92357 74.6284 8.75317L76.3513 7.27635L78.5478 7.84436C78.6614 7.88223 78.775 7.88223 78.8886 7.84436C79.0401 7.80649 79.1726 7.73076 79.2673 7.61716C79.4377 7.40889 79.4945 7.12489 79.3809 6.87875L78.5099 4.79606L79.7406 2.88377C79.8731 2.6755 79.8731 2.37257 79.7217 2.14536Z" fill="#F25C3A"/>
</svg>
